<?xml version="1.0" standalone="no"?>
<!DOCTYPE svg PUBLIC "-//W3C//DTD SVG 20010904//EN"
 "http://www.w3.org/TR/2001/REC-SVG-20010904/DTD/svg10.dtd">
<svg version="1.0" xmlns="http://www.w3.org/2000/svg"
 width="232.000000pt" height="256.000000pt" viewBox="0 0 232.000000 256.000000"
 preserveAspectRatio="xMidYMid meet">
<metadata>
Created by potrace 1.16, written by Peter Selinger 2001-2019
</metadata>
<g transform="translate(0.000000,256.000000) scale(0.100000,-0.100000)"
fill="#000000" stroke="none">
<path d="M0 1280 l0 -1280 1160 0 1160 0 0 1280 0 1280 -1160 0 -1160 0 0
-1280z m1442 1248 c-9 -5 3 -5 28 -2 35 4 42 3 30 -6 -12 -9 -9 -10 13 -5 20
4 27 2 22 -6 -5 -8 -1 -9 15 -4 17 5 21 4 15 -6 -6 -9 -3 -11 8 -6 19 7 49 -1
42 -12 -2 -4 12 -15 31 -25 20 -9 33 -12 29 -6 -13 21 7 9 37 -22 18 -18 27
-26 22 -18 -5 9 2 4 16 -10 14 -14 21 -19 16 -10 -6 8 18 -12 52 -45 61 -58
80 -82 44 -54 -10 8 -2 -1 17 -19 20 -19 29 -31 21 -27 -8 4 -4 -3 10 -15 14
-12 18 -19 10 -15 -8 4 -5 -2 6 -12 31 -26 75 -118 67 -139 -5 -12 -3 -15 6
-9 10 6 11 2 6 -15 -5 -16 -4 -20 5 -15 9 5 10 1 5 -15 -5 -16 -4 -20 5 -15 9
5 10 1 5 -15 -5 -16 -4 -20 4 -15 8 5 10 -2 6 -22 -5 -22 -4 -25 5 -13 9 12
10 6 5 -25 -4 -30 -3 -36 5 -25 8 11 10 4 5 -30 -5 -34 -3 -41 5 -30 8 11 9
-2 6 -50 -3 -40 -2 -53 2 -35 5 18 8 -23 8 -105 0 -82 -3 -125 -8 -110 -5 16
-6 5 -3 -30 4 -41 3 -51 -5 -40 -9 11 -10 7 -5 -20 5 -27 4 -32 -5 -20 -9 12
-10 9 -5 -13 4 -20 2 -27 -6 -22 -8 5 -9 1 -4 -15 4 -14 3 -20 -3 -16 -11 7
-25 -21 -17 -35 6 -9 -31 -89 -41 -89 -3 0 -2 5 1 10 3 6 4 10 1 10 -3 0 -10
-10 -17 -21 -9 -17 -8 -20 3 -14 7 4 2 -3 -12 -15 -14 -12 -18 -19 -10 -15 8
4 4 -3 -10 -15 -14 -12 -18 -19 -10 -15 8 4 1 -5 -16 -21 -16 -16 -23 -24 -14
-19 8 6 -8 -12 -37 -38 -29 -26 -81 -78 -115 -115 -35 -37 -58 -61 -53 -52 6
8 -10 -5 -35 -30 -25 -26 -38 -37 -30 -25 8 12 -7 -2 -35 -31 -27 -28 -75 -76
-106 -105 -30 -30 -38 -38 -17 -19 59 53 45 31 -19 -30 -31 -30 -53 -48 -47
-40 5 9 0 5 -12 -7 -14 -17 -26 -22 -39 -17 -13 5 -16 4 -11 -5 6 -9 0 -10
-21 -6 -19 5 -24 4 -14 -3 8 -6 -11 -8 -57 -4 -50 3 -71 1 -77 -8 -5 -9 -4
-11 4 -6 9 6 10 0 6 -21 -5 -21 -4 -24 4 -13 9 13 11 12 12 -5 1 -11 2 -27 1
-35 -1 -19 26 -70 37 -70 5 0 17 -12 27 -27 17 -27 17 -28 -2 -14 -10 8 4 -7
32 -35 27 -27 34 -35 15 -19 l-36 30 34 -37 c18 -20 39 -34 46 -32 7 3 16 0
21 -7 5 -8 3 -10 -6 -4 -9 5 -11 4 -6 -4 4 -6 11 -9 16 -6 13 8 60 -16 53 -28
-3 -5 3 -6 17 -2 16 5 20 4 15 -4 -5 -8 2 -10 22 -6 18 5 24 3 15 -3 -9 -6 14
-8 64 -6 65 2 80 6 98 25 20 22 20 23 1 9 -20 -14 -20 -14 0 5 12 12 19 27 17
34 -3 9 0 11 7 7 8 -6 10 0 6 21 -5 21 -4 24 4 13 8 -11 11 -4 10 30 0 36 -2
41 -10 25 -8 -17 -9 -16 -6 7 3 17 0 25 -6 21 -6 -4 -8 0 -4 9 3 10 -3 24 -16
35 -22 18 -22 18 -7 -2 14 -20 14 -20 -5 0 -12 12 -27 19 -34 17 -8 -3 -11 0
-8 5 4 6 -9 10 -33 10 -22 0 -38 -3 -35 -6 2 -4 -6 -13 -18 -21 -21 -12 -21
-12 -7 6 12 17 12 17 0 6 -9 -7 -15 -31 -15 -54 0 -28 -5 -42 -15 -45 -13 -4
-13 -3 0 6 13 9 12 11 -5 11 -17 0 -20 7 -20 39 0 22 4 37 9 33 5 -3 7 2 3 10
-5 15 10 35 42 53 9 5 12 4 7 -3 -5 -8 -2 -10 8 -6 9 3 14 9 12 13 -2 3 24 6
59 6 35 0 61 -4 58 -9 -3 -4 5 -5 17 -1 16 5 20 4 15 -5 -5 -9 -1 -10 15 -5
14 4 20 3 17 -2 -4 -6 5 -15 19 -22 19 -8 24 -8 18 0 -15 25 58 -28 99 -70 23
-25 35 -41 27 -35 -9 5 -4 -2 10 -15 14 -13 18 -20 10 -16 -8 4 -4 -2 9 -13
21 -17 24 -28 24 -88 0 -69 0 -69 -49 -119 -26 -27 -44 -43 -40 -35 6 13 5 13
-6 0 -7 -8 -19 -15 -25 -16 -29 -2 -34 -4 -29 -13 9 -13 -52 -32 -83 -25 -20
4 -23 3 -11 -5 11 -9 4 -10 -30 -6 -25 3 -37 2 -28 -2 10 -5 -52 -8 -137 -8
-85 0 -147 3 -137 8 9 4 -5 5 -33 2 -37 -3 -45 -2 -30 5 15 8 11 9 -20 5 -31
-4 -37 -3 -25 5 12 9 9 10 -13 5 -20 -4 -27 -2 -22 6 5 8 1 9 -15 4 -17 -5
-21 -4 -15 6 6 9 3 11 -9 6 -25 -10 -106 36 -152 87 l-39 41 41 -35 c26 -22
22 -17 -10 14 -28 28 -45 46 -38 42 8 -5 7 4 -4 28 -10 19 -21 33 -26 30 -5
-3 -6 7 -2 22 4 15 3 25 -2 21 -5 -3 -9 32 -9 78 0 48 3 79 8 72 5 -7 6 2 3
21 -4 22 -2 31 5 26 8 -4 9 1 4 16 -4 14 -3 20 3 16 6 -3 9 4 8 18 -1 16 -6
22 -15 18 -10 -4 -12 -1 -6 7 6 10 2 11 -15 6 -14 -4 -20 -3 -16 3 7 11 -21
25 -35 16 -5 -3 -9 0 -9 6 0 6 -4 8 -10 5 -5 -3 -10 -2 -10 4 0 6 -10 15 -21
22 -17 9 -20 8 -14 -3 4 -7 -3 -2 -15 12 -12 14 -19 18 -15 10 4 -8 -3 -4 -16
10 -13 14 -20 19 -15 10 5 -8 -10 6 -33 32 -23 26 -63 66 -89 89 -26 23 -40
38 -32 33 9 -5 4 2 -10 15 -14 13 -18 20 -10 15 8 -4 3 4 -12 19 -28 26 -38
44 -18 32 6 -4 3 9 -6 29 -10 19 -21 33 -25 31 -11 -7 -19 23 -12 42 4 11 3
14 -6 9 -9 -6 -10 0 -6 21 5 22 4 25 -5 13 -9 -12 -10 -7 -5 20 5 27 4 31 -5
20 -8 -11 -9 -6 -5 25 4 30 3 35 -5 20 -7 -14 -8 -2 -5 45 3 44 2 56 -4 35 -5
-20 -8 10 -8 90 0 77 3 113 9 100 5 -14 7 -5 3 25 -4 34 -3 41 6 30 8 -12 9
-9 5 12 -7 29 2 61 14 53 11 -7 22 24 13 37 -4 7 -1 8 6 4 8 -5 11 -3 9 5 -1
8 17 34 41 59 25 25 41 38 36 30 -4 -8 4 -2 18 13 20 21 33 27 48 22 15 -5 19
-4 14 4 -5 8 2 10 22 6 16 -4 23 -3 16 2 -6 4 32 8 87 8 55 0 93 -4 87 -8 -7
-5 0 -6 16 -2 20 4 27 2 22 -6 -5 -8 -1 -9 15 -4 16 5 20 4 15 -5 -5 -9 -2
-10 14 -5 15 5 28 -1 48 -22 14 -15 23 -21 18 -13 -4 8 5 1 21 -16 16 -16 23
-22 15 -12 -25 33 -6 19 34 -24 22 -23 31 -36 19 -28 -11 8 -6 2 10 -14 17
-16 24 -25 16 -21 -8 4 -5 -2 6 -12 30 -25 45 -58 37 -79 -4 -12 -3 -15 6 -10
9 6 10 0 6 -21 -5 -22 -4 -25 5 -13 8 12 9 6 5 -25 -3 -22 -2 -32 2 -23 5 10
8 -58 8 -150 0 -92 -3 -154 -7 -137 -4 18 -6 2 -3 -40 3 -49 1 -64 -5 -50 -7
14 -9 4 -5 -35 4 -41 2 -50 -5 -35 -7 15 -9 9 -4 -25 4 -35 3 -42 -6 -30 -9
12 -10 6 -5 -25 4 -30 3 -36 -5 -25 -9 11 -10 7 -5 -19 5 -24 4 -31 -4 -26 -8
5 -10 -2 -6 -22 5 -22 4 -25 -4 -13 -9 12 -11 8 -9 -18 2 -27 6 -32 28 -32 20
0 22 2 10 11 -12 9 -10 10 8 6 27 -6 54 1 47 13 -6 10 24 22 36 14 5 -3 9 -1
9 5 0 6 7 8 15 5 8 -4 17 1 21 10 3 9 10 13 15 10 5 -3 9 -1 9 5 0 6 10 15 21
22 17 9 20 8 14 -3 -4 -7 3 -2 15 12 12 14 19 18 15 10 -4 -8 3 -4 16 10 13
14 20 19 15 10 -5 -8 8 3 30 26 21 22 30 29 19 15 -18 -24 -17 -23 12 3 18 16
30 34 26 39 -3 6 -2 7 4 4 5 -4 23 8 39 26 17 19 21 26 8 17 -11 -8 -4 0 15
19 20 19 29 31 21 27 -8 -4 -4 2 10 14 14 12 18 19 10 15 -8 -4 -4 3 10 15 14
12 19 19 12 15 -8 -4 -7 5 4 29 10 19 21 33 25 31 11 -7 19 23 12 42 -5 11 -3
14 6 8 10 -6 11 -2 6 15 -5 16 -4 20 4 15 8 -5 10 2 6 22 -5 22 -4 25 5 13 9
-12 10 -7 5 20 -5 27 -4 31 5 20 8 -11 9 -1 6 40 -4 40 -3 47 3 25 6 -21 9 -1
9 70 0 72 -3 91 -9 70 -6 -21 -7 -11 -4 35 4 48 2 61 -6 50 -8 -11 -9 -5 -4
25 4 31 3 37 -5 25 -9 -12 -10 -6 -5 25 4 30 3 36 -5 25 -9 -11 -10 -7 -5 20
5 27 4 32 -5 20 -9 -12 -10 -10 -6 12 3 14 2 37 -3 50 -6 14 -10 17 -11 8 -1
-10 -4 -9 -10 5 -12 27 -12 43 0 25 11 -17 13 -10 4 14 -3 9 -11 13 -16 10 -6
-4 -7 2 -3 16 4 14 3 20 -3 16 -11 -7 -25 21 -16 35 3 5 1 9 -5 9 -6 0 -8 7
-5 15 4 8 -1 17 -10 21 -9 3 -14 10 -11 14 3 4 -2 11 -11 14 -9 3 -14 13 -10
21 3 8 0 17 -6 21 -7 4 -8 3 -4 -4 15 -25 -3 -10 -20 16 -17 26 -17 27 2 13
10 -8 3 1 -17 20 -19 19 -26 27 -15 19 12 -8 -4 11 -34 43 -54 56 -82 78 -44
35 10 -12 0 -7 -23 12 -24 18 -43 37 -43 41 0 5 -10 13 -21 20 -15 8 -19 8
-15 0 5 -8 0 -8 -18 0 -14 7 -23 15 -21 19 7 11 -22 20 -42 13 -11 -5 -14 -3
-8 6 6 10 2 11 -15 6 -16 -5 -20 -4 -15 5 6 9 -1 10 -26 5 -26 -5 -30 -4 -19
5 11 8 1 9 -40 5 -39 -4 -49 -2 -35 4 14 7 -1 9 -55 9 -58 0 -68 -2 -45 -9 22
-6 13 -7 -30 -4 -45 4 -56 2 -45 -6 11 -8 5 -9 -25 -4 -31 4 -37 3 -25 -5 12
-9 9 -10 -13 -5 -20 4 -27 2 -22 -6 5 -8 1 -9 -15 -4 -17 5 -21 4 -15 -6 6 -9
3 -11 -8 -6 -19 7 -49 -1 -42 -12 2 -4 -16 -17 -41 -29 -25 -13 -43 -18 -39
-12 12 20 -6 10 -32 -17 -15 -16 -23 -21 -18 -13 4 8 -5 1 -21 -16 -16 -16
-24 -23 -19 -14 6 9 -6 -2 -27 -25 -20 -22 -56 -58 -80 -79 -23 -22 -34 -33
-24 -25 19 14 19 13 2 -13 -17 -25 -36 -42 -21 -18 3 6 4 10 1 10 -3 0 -10
-10 -17 -21 -9 -17 -8 -20 3 -14 7 5 0 -4 -15 -18 -18 -17 -26 -34 -23 -45 3
-9 1 -24 -4 -32 -5 -8 -10 -10 -10 -5 0 13 -20 -17 -20 -30 0 -5 5 -3 11 5 9
12 10 12 5 -3 -3 -10 -6 -24 -6 -30 0 -7 -5 -6 -11 3 -8 11 -9 6 -4 -20 5 -27
4 -31 -5 -20 -8 11 -9 6 -5 -25 3 -22 2 -32 -2 -23 -5 10 -8 -38 -8 -106 0
-68 4 -119 8 -113 5 7 5 -4 2 -23 -5 -27 -4 -32 5 -20 9 12 10 9 5 -13 -4 -20
-2 -27 6 -22 8 5 9 1 4 -15 -4 -14 -3 -20 3 -16 13 8 23 -19 15 -41 -4 -10 -2
-14 4 -10 7 4 10 -3 9 -17 -2 -34 -49 -41 -74 -12 l-17 21 25 -19 c14 -11 8
-3 -13 17 -35 34 -49 56 -27 42 6 -3 7 1 4 9 -3 9 -10 13 -15 10 -5 -3 -9 -3
-9 0 0 2 -3 13 -6 23 -5 15 -4 16 6 3 10 -13 11 -12 6 3 -3 10 -6 24 -6 30 0
7 -5 6 -11 -3 -8 -11 -9 -6 -4 20 5 26 4 31 -4 20 -8 -11 -10 1 -6 45 3 43 2
52 -4 30 -6 -22 -9 -4 -9 65 0 69 3 87 9 65 6 -22 7 -13 4 30 -4 45 -2 56 6
45 8 -11 9 -5 4 25 -4 30 -3 36 5 25 9 -11 10 -7 5 20 -5 27 -4 32 5 20 9 -12
10 -9 5 13 -4 21 -3 27 6 21 9 -5 10 -2 6 9 -8 22 2 49 16 40 6 -4 8 0 4 10
-7 20 2 49 13 42 4 -3 11 2 14 11 3 9 2 12 -5 8 -23 -14 36 83 70 115 20 19
27 29 16 22 -11 -8 2 6 29 31 27 24 70 67 94 94 25 27 41 42 36 34 -5 -9 2 -4
15 10 13 14 20 18 16 10 -4 -8 3 -4 15 10 12 14 19 18 15 10 -4 -8 3 -4 15 10
12 14 19 19 15 12 -6 -11 -3 -12 14 -3 11 7 21 16 21 21 0 13 78 52 89 45 14
-8 42 6 34 18 -4 6 0 8 10 4 21 -8 49 2 41 14 -3 6 6 7 23 4 22 -5 25 -4 13 5
-12 9 -9 10 13 5 19 -4 26 -2 22 5 -4 7 3 9 22 5 22 -5 25 -4 13 5 -12 9 -7
10 20 5 27 -5 31 -4 20 5 -11 8 -5 9 25 5 30 -5 36 -4 25 4 -11 9 -4 10 30 6
25 -3 37 -2 28 2 -10 5 59 8 152 8 93 0 162 -3 152 -7z"/>
<path d="M840 1210 c5 -3 -4 -11 -20 -17 -23 -9 -29 -8 -24 0 3 7 -1 4 -9 -6
-9 -10 -24 -25 -34 -34 -10 -8 -12 -12 -5 -8 10 5 10 1 1 -19 -7 -14 -15 -24
-18 -22 -3 2 -6 -24 -6 -59 0 -35 3 -59 6 -53 4 5 9 -2 13 -17 4 -14 4 -31 0
-37 -5 -7 -2 -8 6 -3 10 6 12 4 7 -9 -4 -9 -3 -15 2 -12 4 3 13 -6 20 -20 9
-20 9 -24 -1 -18 -7 4 1 -6 18 -22 16 -16 21 -22 10 -14 -12 8 4 -11 34 -43
53 -56 77 -75 49 -39 -8 10 -1 4 15 -12 16 -17 25 -24 21 -16 -5 8 3 3 18 -12
27 -29 61 -36 73 -16 4 6 3 8 -4 5 -6 -5 -8 1 -5 14 5 16 8 18 15 7 5 -8 7 2
3 27 -3 22 -2 32 2 23 5 -10 8 50 8 132 0 82 -3 142 -8 132 -4 -9 -5 3 -2 28
4 34 3 41 -6 30 -9 -12 -10 -11 -6 8 3 14 1 20 -6 15 -7 -4 -8 0 -4 11 5 11 3
15 -5 10 -7 -5 -9 -2 -5 9 6 15 -16 41 -37 43 -33 3 -37 5 -32 12 3 5 -17 8
-45 8 -27 0 -45 -3 -39 -6z"/>
</g>
</svg>
